<svg width="40" height="40" viewBox="0 0 40 40" fill="none" xmlns="http://www.w3.org/2000/svg">
<path fill-rule="evenodd" clip-rule="evenodd" d="M12.3695 1.50715V18.8755H13.8153V0.97461C14.3932 0.786868 14.9827 0.624726 15.5823 0.489524V20.5623H12.3695V21.0442V22.0081V25.0187V25.0603H12.3696C12.3778 26.5494 12.8237 28.0036 13.6524 29.2417C14.4888 30.4912 15.6775 31.4642 17.0676 32.0374C18.4578 32.6105 19.9868 32.7579 21.4608 32.4609C22.9349 32.1639 24.2875 31.4358 25.3472 30.3691C26.4069 29.3023 27.126 27.9449 27.4133 26.4689C27.7005 24.993 27.543 23.4649 26.9607 22.0786C26.3784 20.6923 25.3975 19.5101 24.1424 18.682C22.9331 17.884 21.5217 17.4494 20.0753 17.4277L20.0148 0C31.0537 0.00801962 39.9999 8.95924 39.9999 20C39.9999 31.0456 31.0456 39.9999 20 39.9999C8.95429 39.9999 0 31.0456 0 20C0 11.6564 5.10912 4.50621 12.3695 1.50715ZM18.6345 0.0458726C18.0929 0.0823931 17.5571 0.14048 17.0281 0.219283V20.5623H19.9743H19.9864H20.0351L20.0352 20.5626C20.8742 20.5731 21.6936 20.8234 22.3959 21.285C23.1242 21.7637 23.6938 22.4479 24.0325 23.2508C24.3713 24.0538 24.4638 24.9392 24.2985 25.7949C24.1331 26.6505 23.7172 27.4377 23.1037 28.0566C22.4902 28.6755 21.7066 29.0982 20.8524 29.271C19.9982 29.4438 19.112 29.3589 18.3061 29.0272C17.5003 28.6954 16.8111 28.1317 16.3262 27.4077C15.8598 26.7113 15.6025 25.8968 15.5835 25.0603H15.5823V24.9603V22.0081H13.8153V25.0603H13.8151C13.8232 26.2631 14.1842 27.4375 14.8536 28.4376C15.5308 29.4492 16.4931 30.237 17.6186 30.701C18.7441 31.165 19.982 31.2843 21.1753 31.0439C22.3687 30.8034 23.4638 30.214 24.3217 29.3503C25.1797 28.4867 25.7619 27.3877 25.9944 26.1928C26.227 24.9979 26.0994 23.7608 25.628 22.6384C25.1565 21.516 24.3624 20.5589 23.3463 19.8885C22.3747 19.2474 21.242 18.896 20.0803 18.8735L20.0803 18.8755H19.3194H18.6345V0.0458726ZM17.0281 22.0081V25.0194C17.0394 25.5839 17.2123 26.1337 17.5269 26.6035C17.8525 27.0896 18.3152 27.4681 18.8563 27.6908C19.3973 27.9135 19.9924 27.9705 20.5658 27.8545C21.1393 27.7385 21.6654 27.4547 22.0774 27.0392C22.4893 26.6236 22.7685 26.0951 22.8795 25.5206C22.9906 24.9462 22.9284 24.3516 22.701 23.8125C22.4736 23.2734 22.0911 22.8141 21.6022 22.4927C21.1369 22.1869 20.5952 22.0192 20.0397 22.0081H17.0281Z" fill="#9F3247"/>
</svg>
