<svg width="13" height="13" viewBox="0 0 13 13" fill="none" xmlns="http://www.w3.org/2000/svg">
<path fill-rule="evenodd" clip-rule="evenodd" d="M6.50001 0C2.89792 0 0 2.89792 0 6.50001C0 9.37084 1.86875 11.8083 4.44167 12.675C4.76667 12.7292 4.87501 12.5396 4.87501 12.35C4.87501 12.1875 4.87501 11.7813 4.87501 11.2396C3.06042 11.6458 2.68125 10.3729 2.68125 10.3729C2.38334 9.61459 1.95 9.42501 1.95 9.42501C1.35417 9.01876 2.00417 9.01876 2.00417 9.01876C2.65417 9.07293 3.00625 9.69584 3.00625 9.69584C3.575 10.6979 4.52292 10.4 4.90209 10.2375C4.95626 9.80418 5.11876 9.53334 5.30834 9.37084C3.87292 9.20834 2.35625 8.63959 2.35625 6.14792C2.35625 5.44376 2.6 4.84792 3.03334 4.41459C2.97917 4.25209 2.73542 3.60209 3.0875 2.68125C3.0875 2.68125 3.62917 2.51875 4.87501 3.35834C5.38959 3.22292 5.95834 3.14167 6.50001 3.14167C7.04167 3.14167 7.61042 3.22292 8.12501 3.35834C9.37084 2.51875 9.91251 2.68125 9.91251 2.68125C10.2646 3.575 10.0479 4.225 9.96668 4.41459C10.3729 4.875 10.6438 5.44376 10.6438 6.14792C10.6438 8.63959 9.12709 9.18126 7.66459 9.34376C7.90834 9.53334 8.09793 9.93959 8.09793 10.5354C8.09793 11.4021 8.09793 12.1063 8.09793 12.3229C8.09793 12.4854 8.20626 12.7021 8.55834 12.6479C11.1313 11.8083 13 9.37084 13 6.50001C13 2.89792 10.1021 0 6.50001 0Z" fill="#9F3247"/>
</svg>
