<svg width="12" height="12" viewBox="0 0 12 12" fill="none" xmlns="http://www.w3.org/2000/svg">
<path d="M10.4485 1.55149C9.97992 1.08287 9.22013 1.08287 8.75151 1.55149L4.20011 6.10289V7.79992H5.89714L10.4485 3.24852C10.9172 2.7799 10.9172 2.02011 10.4485 1.55149Z" fill="#FFFCFC"/>
<path fill-rule="evenodd" clip-rule="evenodd" d="M1.20016 3.59999C1.20016 2.93726 1.73741 2.40001 2.40014 2.40001H4.8001C5.13147 2.40001 5.40009 2.66863 5.40009 3C5.40009 3.33136 5.13147 3.59999 4.8001 3.59999H2.40014V9.59989H8.40004V7.19993C8.40004 6.86857 8.66867 6.59994 9.00004 6.59994C9.3314 6.59994 9.60003 6.86857 9.60003 7.19993V9.59989C9.60003 10.2626 9.06278 10.7999 8.40004 10.7999H2.40014C1.73741 10.7999 1.20016 10.2626 1.20016 9.59989V3.59999Z" fill="#FFFCFC"/>
</svg>
