<svg width="119" height="34" viewBox="0 0 119 34" fill="none" xmlns="http://www.w3.org/2000/svg">
<path d="M13.3448 19.7656H6.18873L6.15046 16.7181H12.0628C13.1088 16.7181 13.9571 16.6249 14.6076 16.4385C15.271 16.2521 15.7557 15.9819 16.0618 15.6277C16.368 15.2643 16.521 14.8169 16.521 14.2857C16.521 13.6799 16.368 13.1906 16.0618 12.8179C15.7557 12.4451 15.271 12.1748 14.6076 12.0071C13.9571 11.83 13.1152 11.7414 12.082 11.7414H8.44653V28.5587H2.20888V8.20465H12.082C13.753 8.20465 15.2454 8.31649 16.5593 8.54016C17.8732 8.76383 18.9893 9.10866 19.9077 9.57464C20.8389 10.0406 21.5469 10.6231 22.0316 11.3221C22.5163 12.021 22.7587 12.8458 22.7587 13.7964C22.7587 14.6259 22.5036 15.3994 21.9933 16.117C21.4958 16.8346 20.6922 17.4171 19.5825 17.8644C18.4727 18.3118 16.9866 18.5541 15.1243 18.5914L13.3448 19.7656ZM13.0961 28.5587H4.60062L6.85841 25.0359H13.0961C14.0528 25.0359 14.8309 24.924 15.4304 24.7004C16.0299 24.4767 16.47 24.1738 16.7506 23.7917C17.0313 23.4096 17.1716 22.9809 17.1716 22.5056C17.1716 21.9464 17.0376 21.4618 16.7698 21.0517C16.5147 20.6417 16.1065 20.3248 15.5452 20.1011C14.9967 19.8775 14.2632 19.7656 13.3448 19.7656H7.75771L7.79598 16.7181H14.6268L16.081 17.9204C17.854 17.8924 19.2699 18.1021 20.3287 18.5494C21.4002 18.9874 22.1719 19.5653 22.6439 20.2829C23.1158 21.0005 23.3518 21.76 23.3518 22.5615C23.3518 23.8849 22.9628 24.9939 22.1847 25.8886C21.4066 26.774 20.2521 27.4403 18.7214 27.8877C17.2035 28.335 15.3284 28.5587 13.0961 28.5587Z" fill="#9F3247"/>
<path d="M31.7144 13.2538V28.5587H25.5609V13.2538H31.7144Z" fill="#212427"/>
<path d="M43.4383 28.5587H37.339L37.3771 25.0359H43.4383C44.8234 25.0359 45.9925 24.8029 46.9455 24.3369C47.8985 23.8616 48.6228 23.1626 49.1184 22.24C49.614 21.308 49.8618 20.1757 49.8618 18.843V17.9064C49.8618 16.8999 49.722 16.0145 49.4424 15.2503C49.1629 14.4768 48.7499 13.829 48.2035 13.3071C47.6571 12.7852 46.9773 12.3938 46.164 12.1329C45.3635 11.8719 44.4422 11.7414 43.4002 11.7414H25.5609V9.97305V8.20465H43.4002C45.2809 8.20465 46.9963 8.43764 48.5466 8.90362C50.1095 9.3696 51.4565 10.036 52.5874 10.9027C53.7311 11.7694 54.6142 12.7946 55.2368 13.9782C55.8595 15.1617 56.1708 16.4805 56.1708 17.9343V18.843C56.1708 20.2875 55.8595 21.6063 55.2368 22.7992C54.6142 23.9828 53.7311 25.0079 52.5874 25.8746C51.4565 26.732 50.1159 27.3937 48.5656 27.8597C47.0154 28.3257 45.3063 28.5587 43.4383 28.5587ZM41.0662 13.3071L40.8652 28.5587H34.6514L34.8524 13.3071H41.0662Z" fill="#9F3247"/>
<path fill-rule="evenodd" clip-rule="evenodd" d="M65.5855 25.7648C64.9501 25.5642 64.36 25.2204 63.8154 24.7334V18.1443C64.4378 17.5809 65.0927 17.1464 65.78 16.8408C66.4673 16.5257 67.2713 16.3681 68.192 16.3681C69.5536 16.3681 70.5975 16.731 71.3237 17.4568C72.0499 18.173 72.413 19.338 72.413 20.9518C72.413 21.8495 72.3028 22.623 72.0823 23.2724C71.8619 23.9122 71.5442 24.4422 71.1292 24.8623C70.7142 25.273 70.2085 25.5785 69.612 25.7791C69.0284 25.9701 68.3671 26.0656 67.6279 26.0656C66.9147 26.0656 66.2339 25.9653 65.5855 25.7648ZM66.4803 14.1765C65.5077 14.5394 64.6194 15.0312 63.8154 15.6519V7.25799H59.0108V28.5436H62.1814C62.5056 28.5436 62.7585 28.4911 62.9401 28.3861C63.1346 28.281 63.2707 28.1044 63.3485 27.8561L63.5625 26.8677C63.8867 27.1542 64.2239 27.4168 64.574 27.6555C64.9371 27.8847 65.3326 28.0805 65.7606 28.2428C66.1885 28.4052 66.6553 28.5293 67.1611 28.6153C67.5212 28.6832 67.9109 28.727 68.3302 28.7466L68.306 28.7759H88.4889L88.4873 28.7721C88.5456 28.7726 88.5989 28.7728 88.6466 28.7728C89.9822 28.7728 91.1428 28.5866 92.1284 28.2142C93.1139 27.8322 94.0152 27.3356 94.8322 26.7245L95.1629 27.899C95.3314 28.3288 95.7334 28.5436 96.3689 28.5436H99.3061V21.9227L102.553 27.3907L98.8185 33.2922H102.398C102.864 33.2922 103.208 33.2254 103.429 33.0917C103.662 32.9675 103.85 32.7813 103.993 32.533L114.866 13.7971H111.015C110.716 13.7971 110.444 13.8592 110.198 13.9833C109.964 14.1075 109.796 14.265 109.692 14.456L108.931 15.9002L104.993 23.7764L100.613 15.4431L100.063 14.456C99.9596 14.2841 99.7975 14.1313 99.5771 13.9976C99.4988 13.9472 99.4084 13.9062 99.3061 13.8748V13.8471H99.202C99.0563 13.8138 98.8895 13.7971 98.7018 13.7971H94.4808L94.5104 13.8471H94.5015V24.4756C93.8531 24.9531 93.1658 25.3303 92.4396 25.6072C91.7134 25.8746 90.9354 26.0083 90.1054 26.0083C88.9772 26.0083 88.1278 25.7648 87.5573 25.2777C86.9996 24.7812 86.7208 24.0841 86.7208 23.1864V13.8471H86.0733L79.6132 13.7606V16.1993C79.6132 16.3251 79.6832 16.4455 79.8071 16.5329L83.589 19.2021C83.7129 19.2896 83.7829 19.41 83.7829 19.5358V26.8323C83.7829 27.0887 83.4981 27.2965 83.1467 27.2965H74.6365C74.2852 27.2965 74.0003 27.0887 74.0003 26.8323V19.5358C74.0003 19.41 74.0703 19.2896 74.1942 19.2021L77.976 16.533C78.0999 16.4455 78.1699 16.3251 78.1699 16.1993V13.7413L70.5436 13.6392C70.3158 13.625 70.0831 13.6179 69.8454 13.6179C69.7095 13.6179 69.5752 13.6201 69.4425 13.6244L69.3309 13.6229L69.3346 13.6284C68.2818 13.6726 67.3304 13.8553 66.4803 14.1765ZM79.7737 17.8177C79.7737 18.2054 79.3429 18.5198 78.8115 18.5198C78.2801 18.5198 77.8493 18.2054 77.8493 17.8177C77.8493 17.4299 78.2801 17.1155 78.8115 17.1155C79.3429 17.1155 79.7737 17.4299 79.7737 17.8177Z" fill="#212427"/>
<path fill-rule="evenodd" clip-rule="evenodd" d="M104.984 22.7258L106.099 20.5584L103.018 14.5752C102.983 14.5253 102.949 14.4552 102.912 14.3773C102.796 14.1356 102.645 13.819 102.289 13.7986C102.105 13.788 101.958 13.7958 101.778 13.8051C101.499 13.8197 101.143 13.8383 100.451 13.7986L104.984 22.7258ZM111.926 31.8762L111.915 31.897C111.923 31.8973 111.93 31.8977 111.937 31.8981L111.926 31.8762Z" fill="#9F3247"/>
<path d="M115.469 14.36L104.758 33.1928H106.994C107.465 33.1928 107.896 32.8005 108.053 32.6043L119 13.6538H116.764C116.01 13.6538 115.586 14.1246 115.469 14.36Z" fill="#9F3247"/>
</svg>
