<svg width="28" height="28" viewBox="0 0 28 28" fill="none" xmlns="http://www.w3.org/2000/svg">
<g clip-path="url(#clip0_127_1648)">
<path d="M27.9998 13.9999C27.9998 6.26802 21.7318 0 13.9999 0C6.26802 0 0 6.26802 0 13.9999C0 20.9876 5.11959 26.7795 11.8124 27.8298V18.0468H8.25776V13.9999H11.8124V10.9156C11.8124 7.40683 13.9026 5.46872 17.1005 5.46872C18.6321 5.46872 20.2343 5.74215 20.2343 5.74215V9.18745H18.469C16.7298 9.18745 16.1874 10.2666 16.1874 11.3738V13.9999H20.0702L19.4495 18.0468H16.1874V27.8298C22.8802 26.7795 27.9998 20.9877 27.9998 13.9999Z" fill="#1877F2"/>
<path d="M19.4495 18.0466L20.0702 13.9997H16.1874V11.3737C16.1874 10.2664 16.7297 9.18728 18.4689 9.18728H20.2342V5.74199C20.2342 5.74199 18.6321 5.46855 17.1003 5.46855C13.9025 5.46855 11.8124 7.40666 11.8124 10.9154V13.9997H8.25772V18.0466H11.8124V27.8296C12.536 27.943 13.2674 27.9999 13.9999 27.9997C14.7323 27.9999 15.4637 27.943 16.1874 27.8296V18.0466H19.4495Z" fill="white"/>
</g>
<defs>
<clipPath id="clip0_127_1648">
<rect width="27.3333" height="27.3333" fill="white" transform="scale(1.02438)"/>
</clipPath>
</defs>
</svg>
