<svg width="40" height="40" viewBox="0 0 40 40" fill="none" xmlns="http://www.w3.org/2000/svg">
<path fill-rule="evenodd" clip-rule="evenodd" d="M15.5823 0.489541C14.9826 0.624741 14.3932 0.786878 13.8152 0.974614V18.8756H12.3695V1.50716C5.10911 4.50622 0 11.6564 0 20C0 31.0456 8.95429 39.9999 20 39.9999C31.0456 39.9999 39.9999 31.0456 39.9999 20C39.9999 8.95921 31.0536 0.00797863 20.0147 0L20.0752 17.4277C21.5216 17.4494 22.933 17.884 24.1423 18.682C25.3974 19.5101 26.3783 20.6923 26.9606 22.0786C27.5429 23.4649 27.7004 24.9929 27.4132 26.4689C27.1259 27.9449 26.4069 29.3023 25.3472 30.369C24.2874 31.4358 22.9348 32.1639 21.4608 32.4609C19.9867 32.7579 18.4577 32.6105 17.0676 32.0373C15.6774 31.4642 14.4888 30.4912 13.6524 29.2416C12.8236 28.0036 12.3777 26.5494 12.3695 25.0602H12.3694V25.0186V22.008V21.0442V20.5623H15.5823V0.489541ZM18.6345 0.0458777C18.0928 0.0824003 17.557 0.14049 17.028 0.219294V20.5623H19.9742H19.9864H20.0351L20.0351 20.5626C20.8742 20.573 21.6935 20.8234 22.3958 21.285C23.1241 21.7636 23.6937 22.4478 24.0325 23.2508C24.3712 24.0537 24.4638 24.9392 24.2984 25.7949C24.133 26.6505 23.7172 27.4377 23.1036 28.0566C22.4901 28.6755 21.7065 29.0982 20.8523 29.271C19.9982 29.4438 19.1119 29.3589 18.3061 29.0272C17.5002 28.6954 16.8111 28.1317 16.3261 27.4076C15.8597 26.7113 15.6024 25.8968 15.5834 25.0602H15.5823V24.9603V22.008H13.8152V25.0602H13.815C13.8232 26.2631 14.1841 27.4375 14.8536 28.4376C15.5307 29.4492 16.493 30.237 17.6185 30.701C18.744 31.165 19.9819 31.2843 21.1753 31.0439C22.3686 30.8034 23.4637 30.214 24.3217 29.3503C25.1796 28.4867 25.7618 27.3877 25.9943 26.1928C26.2269 24.9978 26.0994 23.7607 25.6279 22.6384C25.1565 21.516 24.3624 20.5589 23.3463 19.8885C22.3746 19.2474 21.2419 18.896 20.0802 18.8735L20.0802 18.8755H19.3193H18.6345V0.0458777ZM17.028 22.008V25.0194C17.0393 25.5839 17.2123 26.1337 17.5269 26.6034C17.8525 27.0896 18.3152 27.468 18.8562 27.6908C19.3973 27.9135 19.9923 27.9705 20.5658 27.8545C21.1393 27.7385 21.6654 27.4547 22.0773 27.0392C22.4892 26.6236 22.7684 26.0951 22.8795 25.5206C22.9905 24.9461 22.9283 24.3516 22.7009 23.8125C22.4735 23.2734 22.091 22.8141 21.6021 22.4927C21.1368 22.1869 20.5951 22.0192 20.0397 22.008H17.028Z" fill="#9F3247"/>
</svg>
