<svg width="28" height="28" viewBox="0 0 28 28" fill="none" xmlns="http://www.w3.org/2000/svg">
<path d="M25.4397 11.7149H24.5V11.6665H14V16.3331H20.5934C19.6315 19.0497 17.0467 20.9998 14 20.9998C10.1342 20.9998 6.99998 17.8655 6.99998 13.9998C6.99998 10.134 10.1342 6.99979 14 6.99979C15.7844 6.99979 17.4078 7.67296 18.6439 8.77254L21.9438 5.47263C19.8601 3.53072 17.073 2.33314 14 2.33314C7.55706 2.33314 2.33332 7.55688 2.33332 13.9998C2.33332 20.4427 7.55706 25.6664 14 25.6664C20.4429 25.6664 25.6666 20.4427 25.6666 13.9998C25.6666 13.2175 25.5861 12.454 25.4397 11.7149Z" fill="#FFC107"/>
<path d="M3.67849 8.56954L7.51157 11.3806C8.54873 8.81279 11.0606 6.99979 14 6.99979C15.7844 6.99979 17.4078 7.67296 18.6439 8.77254L21.9438 5.47263C19.8601 3.53072 17.073 2.33314 14 2.33314C9.51881 2.33314 5.63265 4.86305 3.67849 8.56954Z" fill="#FF3D00"/>
<path d="M14 25.6664C17.0135 25.6664 19.7516 24.5132 21.8219 22.6377L18.2111 19.5822C17.0004 20.503 15.521 21.0009 14 20.9997C10.9655 20.9997 8.3889 19.0648 7.41824 16.3646L3.61375 19.2958C5.54458 23.0741 9.46574 25.6664 14 25.6664Z" fill="#4CAF50"/>
<path d="M25.4397 11.715H24.5V11.6666H14V16.3332H20.5934C20.1333 17.6261 19.3044 18.7559 18.2093 19.583L18.2111 19.5818L21.8219 22.6373C21.5664 22.8695 25.6666 19.8332 25.6666 13.9999C25.6666 13.2176 25.5861 12.4541 25.4397 11.715Z" fill="#1976D2"/>
</svg>
