<svg width="28" height="28" viewBox="0 0 28 28" fill="none" xmlns="http://www.w3.org/2000/svg">
<path d="M25.4397 11.7151H24.4999V11.6667H14V16.3333H20.5933C19.6314 19.0499 17.0467 20.9999 14 20.9999C10.1342 20.9999 7.00001 17.8657 7.00001 14C7.00001 10.1342 10.1342 7.00001 14 7.00001C15.7844 7.00001 17.4078 7.67318 18.6439 8.77275L21.9438 5.47286C19.8601 3.53095 17.073 2.33338 14 2.33338C7.55709 2.33338 2.33338 7.55709 2.33338 14C2.33338 20.4428 7.55709 25.6666 14 25.6666C20.4428 25.6666 25.6666 20.4428 25.6666 14C25.6666 13.2177 25.5861 12.4541 25.4397 11.7151Z" fill="#FFC107"/>
<path d="M3.6785 8.56975L7.51156 11.3808C8.54872 8.813 11.0605 7.00001 13.9999 7.00001C15.7843 7.00001 17.4078 7.67318 18.6438 8.77275L21.9437 5.47286C19.8601 3.53095 17.0729 2.33338 13.9999 2.33338C9.5188 2.33338 5.63266 4.86328 3.6785 8.56975Z" fill="#FF3D00"/>
<path d="M13.9999 25.6664C17.0134 25.6664 19.7515 24.5132 21.8218 22.6378L18.211 19.5823C17.0003 20.503 15.5209 21.001 13.9999 20.9998C10.9654 20.9998 8.38887 19.0649 7.41821 16.3646L3.61373 19.2959C5.54455 23.0741 9.46569 25.6664 13.9999 25.6664Z" fill="#4CAF50"/>
<path d="M25.4396 11.7148H24.4998V11.6664H13.9999V16.333H20.5933C20.1331 17.6259 19.3043 18.7557 18.2092 19.5827L18.2109 19.5816L21.8217 22.6371C21.5662 22.8692 25.6665 19.833 25.6665 13.9997C25.6665 13.2174 25.586 12.4539 25.4396 11.7148Z" fill="#1976D2"/>
</svg>
