<svg width="14" height="14" viewBox="0 0 14 14" fill="none" xmlns="http://www.w3.org/2000/svg">
<path d="M5.71433 2.16073L10.0893 6.53573C10.1505 6.59669 10.1991 6.66914 10.2322 6.74891C10.2653 6.82868 10.2823 6.9142 10.2823 7.00057C10.2823 7.08694 10.2653 7.17246 10.2322 7.25223C10.1991 7.332 10.1505 7.40445 10.0893 7.46541L5.71433 11.8404C5.59105 11.9637 5.42384 12.033 5.24949 12.033C5.07514 12.033 4.90793 11.9637 4.78464 11.8404C4.66136 11.7171 4.5921 11.5499 4.5921 11.3756C4.5921 11.2012 4.66136 11.034 4.78464 10.9107L8.69535 7.00002L4.7841 3.08932C4.66081 2.96604 4.59155 2.79883 4.59155 2.62448C4.59155 2.45013 4.66081 2.28292 4.7841 2.15963C4.90738 2.03635 5.07459 1.96709 5.24894 1.96709C5.42329 1.96709 5.5905 2.03635 5.71379 2.15963L5.71433 2.16073Z" fill="black" fill-opacity="0.6"/>
</svg>
