<svg width="89" height="89" viewBox="0 0 89 89" fill="none" xmlns="http://www.w3.org/2000/svg">
<rect x="0.5" y="0.5" width="87.9999" height="87.9999" rx="43.5913" stroke="#EDEBEC"/>
<path d="M35.1622 46.1707H33.3963C31.4457 46.1707 29.8644 47.752 29.8644 49.7027V55.0005C29.8644 56.9512 31.4457 58.5324 33.3963 58.5324H35.1622C37.1129 58.5324 38.6942 56.9512 38.6942 55.0005V49.7027C38.6942 47.752 37.1129 46.1707 35.1622 46.1707Z" stroke="#9F3247" stroke-width="1.49978" stroke-linecap="round" stroke-linejoin="round"/>
<path d="M54.588 46.1707H52.822C50.8714 46.1707 49.2901 47.752 49.2901 49.7027V55.0005C49.2901 56.9512 50.8714 58.5324 52.822 58.5324H54.588C56.5386 58.5324 58.1199 56.9512 58.1199 55.0005V49.7027C58.1199 47.752 56.5386 46.1707 54.588 46.1707Z" stroke="#9F3247" stroke-width="1.49978" stroke-linecap="round" stroke-linejoin="round"/>
<path d="M29.8644 49.7027V44.4048C29.8644 40.6579 31.3528 37.0645 34.0023 34.415C36.6517 31.7656 40.2451 30.2772 43.992 30.2772C47.7389 30.2772 51.3323 31.7656 53.9818 34.415C56.6312 37.0645 58.1197 40.6579 58.1197 44.4048V49.7027" stroke="#9F3247" stroke-width="1.49978" stroke-linecap="round" stroke-linejoin="round"/>
</svg>
