<svg width="12" height="12" viewBox="0 0 12 12" fill="none" xmlns="http://www.w3.org/2000/svg">
<path fill-rule="evenodd" clip-rule="evenodd" d="M2.39934 3.00008C1.73661 3.00008 1.19935 3.53734 1.19935 4.20007V9.00005C1.19935 9.66279 1.73661 10.2 2.39934 10.2H9.59931C10.262 10.2 10.7993 9.66279 10.7993 9.00005V4.20007C10.7993 3.53734 10.262 3.00008 9.59931 3.00008H8.64784C8.48871 3.00008 8.3361 2.93687 8.22358 2.82435L7.55079 2.15156C7.32575 1.92651 7.02053 1.80009 6.70227 1.80009H5.29639C4.97813 1.80009 4.67291 1.92651 4.44786 2.15156L3.77507 2.82435C3.66255 2.93687 3.50994 3.00008 3.35081 3.00008H2.39934ZM5.99933 8.40005C6.99343 8.40005 7.79932 7.59417 7.79932 6.60006C7.79932 5.60595 6.99343 4.80007 5.99933 4.80007C5.00522 4.80007 4.19934 5.60595 4.19934 6.60006C4.19934 7.59417 5.00522 8.40005 5.99933 8.40005Z" fill="#FFFCFC"/>
</svg>
