<svg width="12" height="12" viewBox="0 0 12 12" fill="none" xmlns="http://www.w3.org/2000/svg">
<path d="M10.4478 1.55148C9.9792 1.08286 9.21941 1.08286 8.75078 1.55148L4.19933 6.10293V7.79998H5.89638L10.4478 3.24853C10.9165 2.7799 10.9165 2.02011 10.4478 1.55148Z" fill="#9F3247"/>
<path fill-rule="evenodd" clip-rule="evenodd" d="M1.19935 3.6C1.19935 2.93726 1.73661 2.40001 2.39934 2.40001H4.79933C5.1307 2.40001 5.39933 2.66864 5.39933 3C5.39933 3.33137 5.1307 3.6 4.79933 3.6H2.39934V9.59997H8.39931V7.19998C8.39931 6.86861 8.66794 6.59999 8.99931 6.59999C9.33068 6.59999 9.59931 6.86861 9.59931 7.19998V9.59997C9.59931 10.2627 9.06205 10.8 8.39931 10.8H2.39934C1.73661 10.8 1.19935 10.2627 1.19935 9.59997V3.6Z" fill="#9F3247"/>
</svg>
