<svg width="20" height="20" viewBox="0 0 20 20" fill="none" xmlns="http://www.w3.org/2000/svg">
<path d="M17.6235 9.45272C18.3883 8.87422 17.9792 7.65517 17.0203 7.65517H13.1042C12.6657 7.65517 12.2783 7.36948 12.1488 6.95054L10.9554 3.09027C10.6649 2.15075 9.33507 2.15075 9.04462 3.09027L7.85118 6.95054C7.72166 7.36948 7.3343 7.65517 6.89579 7.65517H2.94972C1.99387 7.65517 1.5828 8.86772 2.34158 9.44901L5.61526 11.9569C5.9468 12.2109 6.08558 12.6441 5.96331 13.0435L4.74735 17.0148C4.46249 17.9452 5.53929 18.6931 6.31167 18.1014L9.39186 15.7417C9.75069 15.4669 10.2493 15.4669 10.6081 15.7417L13.6767 18.0925C14.4502 18.685 15.528 17.9342 15.2402 17.0033L14.0071 13.0147C13.8828 12.6126 14.0236 12.1757 14.3592 11.9218L17.6235 9.45272Z" fill="#FFAD33"/>
</svg>
