<svg width="12" height="10" viewBox="0 0 12 10" fill="none" xmlns="http://www.w3.org/2000/svg">
<path d="M12 1.125C11.55 1.325 11.075 1.45 10.575 1.525C11.075 1.225 11.475 0.749999 11.65 0.175C11.175 0.449999 10.65 0.649999 10.075 0.774998C9.62498 0.299999 8.97498 0 8.27498 0C6.92498 0 5.82499 1.1 5.82499 2.44999C5.82499 2.64999 5.84999 2.82499 5.89999 2.99999C3.87499 2.89999 2.05 1.925 0.824998 0.424999C0.624999 0.799998 0.499999 1.2 0.499999 1.65C0.499999 2.49999 0.924998 3.24999 1.6 3.69999C1.2 3.67499 0.824998 3.57499 0.474999 3.39999V3.42499C0.474999 4.62499 1.325 5.62499 2.44999 5.84999C2.25 5.89999 2.025 5.92499 1.8 5.92499C1.65 5.92499 1.475 5.89999 1.325 5.87499C1.65 6.84999 2.54999 7.57499 3.62499 7.57499C2.77499 8.22498 1.725 8.62498 0.574999 8.62498C0.374999 8.62498 0.175 8.62498 0 8.59998C1.1 9.29998 2.375 9.69998 3.77499 9.69998C8.29998 9.69998 10.775 5.94999 10.775 2.69999C10.775 2.59999 10.775 2.475 10.775 2.375C11.25 2.05 11.675 1.625 12 1.125Z" fill="#9F3247"/>
</svg>
