<svg width="89" height="89" viewBox="0 0 89 89" fill="none" xmlns="http://www.w3.org/2000/svg">
<rect x="0.5" y="0.5" width="87.9999" height="87.9999" rx="43.5913" stroke="#EDEBEC"/>
<path d="M31.9572 35.4547H33.7059C34.6335 35.4547 35.5232 35.0862 36.1791 34.4303C36.835 33.7744 37.2035 32.8848 37.2035 31.9572C37.2035 31.4934 37.3877 31.0486 37.7157 30.7206C38.0436 30.3927 38.4884 30.2084 38.9522 30.2084H49.4449C49.9087 30.2084 50.3535 30.3927 50.6814 30.7206C51.0094 31.0486 51.1936 31.4934 51.1936 31.9572C51.1936 32.8848 51.5621 33.7744 52.2181 34.4303C52.874 35.0862 53.7636 35.4547 54.6912 35.4547H56.44C57.3676 35.4547 58.2572 35.8232 58.9131 36.4791C59.569 37.135 59.9375 38.0247 59.9375 38.9523V54.6912C59.9375 55.6188 59.569 56.5084 58.9131 57.1643C58.2572 57.8203 57.3676 58.1887 56.44 58.1887H31.9572C31.0296 58.1887 30.1399 57.8203 29.484 57.1643C28.8281 56.5084 28.4596 55.6188 28.4596 54.6912V38.9523C28.4596 38.0247 28.8281 37.135 29.484 36.4791C30.1399 35.8232 31.0296 35.4547 31.9572 35.4547" stroke="#9F3247" stroke-width="1.48518" stroke-linecap="round" stroke-linejoin="round"/>
<path d="M44.1983 51.1936C47.0957 51.1936 49.4446 48.8448 49.4446 45.9473C49.4446 43.0499 47.0957 40.701 44.1983 40.701C41.3008 40.701 38.952 43.0499 38.952 45.9473C38.952 48.8448 41.3008 51.1936 44.1983 51.1936Z" stroke="#9F3247" stroke-width="1.48518" stroke-linecap="round" stroke-linejoin="round"/>
</svg>
