<svg width="80" height="23" viewBox="0 0 80 23" fill="none" xmlns="http://www.w3.org/2000/svg">
<path d="M8.97133 13.2879H4.16051L4.13479 11.2392H8.1095C8.81268 11.2392 9.38295 11.1765 9.8203 11.0512C10.2662 10.9259 10.5921 10.7442 10.7979 10.5061C11.0037 10.2618 11.1066 9.96105 11.1066 9.60393C11.1066 9.19668 11.0037 8.86775 10.7979 8.61714C10.5921 8.36653 10.2662 8.18484 9.8203 8.07206C9.38295 7.95302 8.81697 7.8935 8.12236 7.8935H5.67836V19.1992H1.48498V5.51582H8.12236C9.24574 5.51582 10.2491 5.591 11.1323 5.74137C12.0156 5.89174 12.766 6.12355 13.3834 6.43682C14.0094 6.75008 14.4853 7.14166 14.8112 7.61156C15.1371 8.08146 15.3 8.63594 15.3 9.275C15.3 9.83261 15.1285 10.3526 14.7855 10.8351C14.451 11.3175 13.9108 11.7091 13.1647 12.0098C12.4186 12.3105 11.4196 12.4734 10.1676 12.4985L8.97133 13.2879ZM8.80411 19.1992H3.09287L4.61072 16.8309H8.80411C9.44727 16.8309 9.97037 16.7558 10.3734 16.6054C10.7765 16.455 11.0723 16.2514 11.261 15.9945C11.4496 15.7376 11.544 15.4494 11.544 15.1299C11.544 14.754 11.4539 14.4282 11.2738 14.1525C11.1023 13.8769 10.8279 13.6638 10.4506 13.5135C10.0818 13.3631 9.58876 13.2879 8.97133 13.2879H5.21529L5.24102 11.2392H9.83316L10.8108 12.0474C12.0027 12.0286 12.9546 12.1696 13.6664 12.4703C14.3867 12.7648 14.9055 13.1532 15.2228 13.6356C15.5401 14.1181 15.6987 14.6287 15.6987 15.1675C15.6987 16.0572 15.4372 16.8027 14.9141 17.4042C14.391 17.9994 13.6149 18.4474 12.5859 18.7481C11.5654 19.0489 10.3048 19.1992 8.80411 19.1992Z" fill="#9F3247"/>
<path d="M21.3206 8.91013V19.1992H17.1838V8.91013H21.3206Z" fill="#212427"/>
<path d="M29.2023 19.1992H25.1018L25.1275 16.8309H29.2023C30.1334 16.8309 30.9193 16.6743 31.56 16.361C32.2007 16.0415 32.6876 15.5716 33.0208 14.9514C33.3539 14.3248 33.5205 13.5636 33.5205 12.6677V12.038C33.5205 11.3613 33.4266 10.7661 33.2386 10.2524C33.0507 9.73236 32.7731 9.29693 32.4057 8.94607C32.0384 8.59521 31.5814 8.33207 31.0346 8.15664C30.4965 7.98121 29.8771 7.8935 29.1766 7.8935H17.1838V6.70466V5.51582H29.1766C30.4409 5.51582 31.5942 5.67245 32.6364 5.98572C33.6871 6.29898 34.5926 6.74695 35.3529 7.32962C36.1217 7.9123 36.7154 8.60148 37.134 9.39717C37.5526 10.1929 37.7619 11.0794 37.7619 12.0568V12.6677C37.7619 13.6388 37.5526 14.5253 37.134 15.3273C36.7154 16.123 36.1217 16.8121 35.3529 17.3948C34.5926 17.9712 33.6914 18.4161 32.6492 18.7293C31.607 19.0426 30.458 19.1992 29.2023 19.1992ZM27.6075 8.94607L27.4724 19.1992H23.2951L23.4302 8.94607H27.6075Z" fill="#9F3247"/>
<path fill-rule="evenodd" clip-rule="evenodd" d="M44.0911 17.321C43.664 17.1861 43.2673 16.955 42.9011 16.6276V12.198C43.3196 11.8192 43.7599 11.5271 44.2219 11.3217C44.6839 11.1098 45.2245 11.0039 45.8434 11.0039C46.7588 11.0039 47.4606 11.2478 47.9488 11.7357C48.437 12.2172 48.6811 13.0004 48.6811 14.0854C48.6811 14.6888 48.607 15.2088 48.4588 15.6454C48.3106 16.0755 48.097 16.4318 47.818 16.7143C47.539 16.9903 47.199 17.1958 46.798 17.3306C46.4057 17.459 45.9611 17.5232 45.4642 17.5232C44.9847 17.5232 44.527 17.4558 44.0911 17.321ZM44.6927 9.53055C44.0388 9.7745 43.4417 10.1051 42.9011 10.5224V4.87942H39.6712V19.1891H41.8027C42.0206 19.1891 42.1906 19.1538 42.3127 19.0832C42.4435 19.0126 42.535 18.8938 42.5873 18.7269L42.7311 18.0624C42.9491 18.255 43.1758 18.4316 43.4111 18.5921C43.6552 18.7461 43.9211 18.8778 44.2088 18.9869C44.4965 19.096 44.8104 19.1795 45.1503 19.2373C45.3924 19.283 45.6544 19.3124 45.9363 19.3256L45.92 19.3452H59.4884L59.4873 19.3427C59.5265 19.343 59.5623 19.3432 59.5944 19.3432C60.4923 19.3432 61.2726 19.218 61.9351 18.9676C62.5977 18.7108 63.2036 18.377 63.7528 17.9661L63.9751 18.7558C64.0884 19.0447 64.3587 19.1891 64.7859 19.1891H66.7605V14.738L68.9434 18.414L66.4327 22.3814H68.8388C69.1526 22.3814 69.3837 22.3365 69.5319 22.2466C69.6888 22.1632 69.8152 22.038 69.9111 21.8711L77.221 9.27546H74.6318C74.4313 9.27546 74.2482 9.31719 74.0826 9.40065C73.9256 9.4841 73.8123 9.59003 73.7426 9.71843L73.2292 10.693L70.5835 15.9842L67.6382 10.3808L67.2696 9.71843C67.1998 9.60287 67.0909 9.50015 66.9427 9.41028C66.89 9.37635 66.8293 9.34882 66.7605 9.3277V9.30907H66.6905C66.5925 9.28666 66.4804 9.27546 66.3542 9.27546H63.5165L63.5365 9.30907H63.5305V16.4543C63.0946 16.7753 62.6326 17.0289 62.1444 17.215C61.6562 17.3948 61.1331 17.4847 60.5751 17.4847C59.8167 17.4847 59.2457 17.321 58.8621 16.9935C58.4872 16.6597 58.2998 16.1911 58.2998 15.5876V9.30907H57.8644L53.5214 9.25092V10.8903C53.5214 10.9749 53.5685 11.0558 53.6518 11.1146L56.1942 12.909C56.2775 12.9678 56.3246 13.0488 56.3246 13.1333V18.0385C56.3246 18.2109 56.1331 18.3506 55.8969 18.3506H50.1757C49.9395 18.3506 49.748 18.2109 49.748 18.0385V13.1333C49.748 13.0488 49.7951 12.9678 49.8784 12.909L52.4208 11.1147C52.5041 11.0559 52.5511 10.9749 52.5511 10.8903V9.23793L47.4243 9.16929C47.2712 9.15976 47.1147 9.15499 46.9549 9.15499C46.8636 9.15499 46.7733 9.15645 46.6841 9.15937L46.6091 9.15837L46.6115 9.16208C45.9038 9.19176 45.2642 9.31458 44.6927 9.53055ZM53.6293 11.9783C53.6293 12.239 53.3397 12.4503 52.9824 12.4503C52.6252 12.4503 52.3356 12.239 52.3356 11.9783C52.3356 11.7176 52.6252 11.5063 52.9824 11.5063C53.3397 11.5063 53.6293 11.7176 53.6293 11.9783Z" fill="#212427"/>
<path fill-rule="evenodd" clip-rule="evenodd" d="M70.5777 15.278L71.327 13.8209L69.2559 9.79858C69.2321 9.76502 69.2096 9.71788 69.1845 9.66551C69.1069 9.50302 69.0051 9.29021 68.7661 9.27648C68.6424 9.26937 68.5432 9.27456 68.4225 9.28086C68.2349 9.29066 67.9952 9.30319 67.5305 9.27648L70.5777 15.278ZM75.2447 21.4295L75.2374 21.4435C75.2423 21.4437 75.2473 21.4439 75.2523 21.4442L75.2447 21.4295Z" fill="#9F3247"/>
<path d="M77.6261 9.65372L70.4253 22.3145H71.9288C72.2453 22.3145 72.5355 22.0507 72.641 21.9188L80 9.17895H78.4966C77.9901 9.17895 77.7053 9.49546 77.6261 9.65372Z" fill="#9F3247"/>
</svg>
