<svg width="13" height="13" viewBox="0 0 13 13" fill="none" xmlns="http://www.w3.org/2000/svg">
<path fill-rule="evenodd" clip-rule="evenodd" d="M6.49998 0C2.89791 0 0 2.89791 0 6.49998C0 9.3708 1.86874 11.8083 4.44165 12.675C4.76665 12.7291 4.87498 12.5395 4.87498 12.35C4.87498 12.1875 4.87498 11.7812 4.87498 11.2395C3.06041 11.6458 2.68124 10.3729 2.68124 10.3729C2.38332 9.61455 1.94999 9.42497 1.94999 9.42497C1.35416 9.01872 2.00416 9.01872 2.00416 9.01872C2.65416 9.07288 3.00624 9.6958 3.00624 9.6958C3.57499 10.6979 4.5229 10.4 4.90207 10.2375C4.95623 9.80413 5.11873 9.5333 5.30831 9.3708C3.8729 9.2083 2.35624 8.63955 2.35624 6.14789C2.35624 5.44373 2.59999 4.8479 3.03332 4.41457C2.97916 4.25207 2.73541 3.60207 3.08749 2.68124C3.08749 2.68124 3.62915 2.51874 4.87498 3.35832C5.38956 3.2229 5.95831 3.14165 6.49998 3.14165C7.04164 3.14165 7.61039 3.2229 8.12497 3.35832C9.3708 2.51874 9.91246 2.68124 9.91246 2.68124C10.2645 3.57499 10.0479 4.22498 9.96663 4.41457C10.3729 4.87498 10.6437 5.44373 10.6437 6.14789C10.6437 8.63955 9.12705 9.18122 7.66456 9.34372C7.9083 9.5333 8.09789 9.93955 8.09789 10.5354C8.09789 11.402 8.09789 12.1062 8.09789 12.3229C8.09789 12.4854 8.20622 12.702 8.5583 12.6479C11.1312 11.8083 13 9.3708 13 6.49998C13 2.89791 10.102 0 6.49998 0Z" fill="#9F3247"/>
</svg>
