<svg width="12" height="12" viewBox="0 0 12 12" fill="none" xmlns="http://www.w3.org/2000/svg">
<path d="M6.60016 10.1999C6.60016 10.4078 6.70783 10.6009 6.88472 10.7103C7.06161 10.8196 7.28249 10.8295 7.46848 10.7365L9.86844 9.53655C10.0717 9.43492 10.2001 9.22716 10.2001 8.9999V5.5416C10.2001 5.33366 10.0924 5.14054 9.91555 5.03122C9.73866 4.92189 9.51778 4.91196 9.33179 5.00495L6.93183 6.20493C6.72856 6.30657 6.60016 6.51432 6.60016 6.74158V10.1999Z" fill="#9F3247"/>
<path d="M9.12681 3.76582C9.33008 3.66419 9.45848 3.45643 9.45848 3.22917C9.45848 3.00191 9.33008 2.79416 9.12681 2.69253L6.2685 1.26337C6.09958 1.17891 5.90076 1.17891 5.73185 1.26337L2.87353 2.69253C2.67027 2.79416 2.54187 3.00191 2.54187 3.22917C2.54187 3.45643 2.67027 3.66419 2.87353 3.76582L5.73185 5.19498C5.90076 5.27944 6.09958 5.27944 6.2685 5.19498L9.12681 3.76582Z" fill="#9F3247"/>
<path d="M2.66855 5.00495C2.48256 4.91196 2.26168 4.92189 2.0848 5.03122C1.90791 5.14054 1.80024 5.33366 1.80024 5.5416V8.9999C1.80024 9.22716 1.92864 9.43492 2.13191 9.53655L4.53187 10.7365C4.71786 10.8295 4.93874 10.8196 5.11563 10.7103C5.29251 10.6009 5.40018 10.4078 5.40018 10.1999V6.74158C5.40018 6.51432 5.27178 6.30657 5.06852 6.20493L2.66855 5.00495Z" fill="#9F3247"/>
</svg>
