<svg width="12" height="12" viewBox="0 0 12 12" fill="none" xmlns="http://www.w3.org/2000/svg">
<path fill-rule="evenodd" clip-rule="evenodd" d="M2.40014 2.99995C1.73741 2.99995 1.20016 3.5372 1.20016 4.19993V8.99986C1.20016 9.66259 1.73741 10.1998 2.40014 10.1998H9.60003C10.2628 10.1998 10.8 9.66259 10.8 8.99986V4.19993C10.8 3.5372 10.2628 2.99995 9.60003 2.99995H8.64857C8.48944 2.99995 8.33683 2.93674 8.22431 2.82422L7.55153 2.15144C7.32649 1.9264 7.02127 1.79997 6.70302 1.79997H5.29715C4.9789 1.79997 4.67368 1.9264 4.44864 2.15144L3.77585 2.82422C3.66333 2.93674 3.51072 2.99995 3.3516 2.99995H2.40014ZM6.00008 8.39987C6.99418 8.39987 7.80005 7.59399 7.80005 6.5999C7.80005 5.6058 6.99418 4.79993 6.00008 4.79993C5.00599 4.79993 4.20011 5.6058 4.20011 6.5999C4.20011 7.59399 5.00599 8.39987 6.00008 8.39987Z" fill="#9F3247"/>
</svg>
