<svg width="14" height="14" viewBox="0 0 14 14" fill="none" xmlns="http://www.w3.org/2000/svg">
<path d="M5.7143 2.16073L10.0893 6.53573C10.1505 6.59669 10.199 6.66914 10.2321 6.74891C10.2653 6.82868 10.2823 6.9142 10.2823 7.00057C10.2823 7.08694 10.2653 7.17246 10.2321 7.25223C10.199 7.332 10.1505 7.40445 10.0893 7.46541L5.7143 11.8404C5.59102 11.9637 5.42381 12.033 5.24946 12.033C5.07511 12.033 4.9079 11.9637 4.78461 11.8404C4.66133 11.7171 4.59207 11.5499 4.59207 11.3756C4.59207 11.2012 4.66133 11.034 4.78461 10.9107L8.69532 7.00002L4.78407 3.08932C4.66078 2.96604 4.59152 2.79883 4.59152 2.62448C4.59152 2.45013 4.66078 2.28292 4.78407 2.15963C4.90735 2.03635 5.07456 1.96709 5.24891 1.96709C5.42326 1.96709 5.59047 2.03635 5.71375 2.15963L5.7143 2.16073Z" fill="black" fill-opacity="0.6"/>
</svg>
