<svg width="28" height="28" viewBox="0 0 28 28" fill="none" xmlns="http://www.w3.org/2000/svg">
<g clip-path="url(#clip0_127_1648)">
<path d="M28 14C28 6.26805 21.7319 0 14 0C6.26805 0 0 6.26805 0 14C0 20.9877 5.11962 26.7797 11.8125 27.8299V18.0468H8.2578V14H11.8125V10.9156C11.8125 7.40686 13.9026 5.46874 17.1005 5.46874C18.6322 5.46874 20.2343 5.74218 20.2343 5.74218V9.18749H18.469C16.7299 9.18749 16.1875 10.2667 16.1875 11.3739V14H20.0703L19.4496 18.0468H16.1875V27.8299C22.8803 26.7797 28 20.9878 28 14Z" fill="#1877F2"/>
<path d="M19.4496 18.0467L20.0703 13.9998H16.1875V11.3737C16.1875 10.2664 16.7299 9.18732 18.4691 9.18732H20.2344V5.74201C20.2344 5.74201 18.6322 5.46858 17.1004 5.46858C13.9027 5.46858 11.8125 7.4067 11.8125 10.9154V13.9998H8.25782V18.0467H11.8125V27.8297C12.5361 27.9431 13.2675 28 14 27.9998C14.7325 28 15.4639 27.9431 16.1875 27.8297V18.0467H19.4496Z" fill="white"/>
</g>
<defs>
<clipPath id="clip0_127_1648">
<rect width="27.3333" height="27.3333" fill="white" transform="scale(1.02439)"/>
</clipPath>
</defs>
</svg>
