<svg width="12" height="12" viewBox="0 0 12 12" fill="none" xmlns="http://www.w3.org/2000/svg">
<g clip-path="url(#clip0_0_38)">
<circle cx="6.25049" cy="6.24996" r="4.74998" fill="#FFFCFC"/>
<path d="M5.9997 0.749992C7.39208 0.749992 8.72743 1.30311 9.71199 2.28767C10.6966 3.27223 11.2497 4.60759 11.2497 5.99997C11.2497 7.39235 10.6966 8.7277 9.71199 9.71226C8.72743 10.6968 7.39208 11.2499 5.9997 11.2499C4.60732 11.2499 3.27197 10.6968 2.28741 9.71226C1.30285 8.7277 0.749727 7.39235 0.749727 5.99997C0.749727 4.60759 1.30285 3.27223 2.28741 2.28767C3.27197 1.30311 4.60732 0.749992 5.9997 0.749992ZM5.3457 7.03571L4.17946 5.86872C4.13765 5.82691 4.08802 5.79374 4.03339 5.77111C3.97876 5.74849 3.92021 5.73684 3.86109 5.73684C3.80196 5.73684 3.74341 5.74849 3.68878 5.77111C3.63416 5.79374 3.58452 5.82691 3.54271 5.86872C3.45827 5.95315 3.41084 6.06768 3.41084 6.18709C3.41084 6.3065 3.45827 6.42102 3.54271 6.50546L5.02771 7.99046C5.0694 8.03247 5.11899 8.06583 5.17364 8.08858C5.22828 8.11134 5.28689 8.12306 5.34608 8.12306C5.40527 8.12306 5.46388 8.11134 5.51852 8.08858C5.57316 8.06583 5.62276 8.03247 5.66445 7.99046L8.73944 4.91472C8.7818 4.87308 8.81551 4.82347 8.83861 4.76875C8.86171 4.71402 8.87374 4.65526 8.87402 4.59586C8.87429 4.53646 8.86281 4.47759 8.84022 4.42265C8.81763 4.36771 8.78439 4.31778 8.74241 4.27576C8.70043 4.23373 8.65054 4.20043 8.59563 4.17777C8.54072 4.15512 8.48186 4.14356 8.42246 4.14377C8.36306 4.14398 8.30429 4.15594 8.24953 4.17897C8.19478 4.20201 8.14513 4.23566 8.10344 4.27797L5.3457 7.03571Z" fill="#27AE60"/>
</g>
<defs>
<clipPath id="clip0_0_38">
<rect width="11.0508" height="11.0508" fill="white" transform="scale(1.08588)"/>
</clipPath>
</defs>
</svg>
