<svg width="12" height="10" viewBox="0 0 12 10" fill="none" xmlns="http://www.w3.org/2000/svg">
<path d="M12 1.125C11.55 1.325 11.075 1.45 10.575 1.525C11.075 1.225 11.475 0.750001 11.65 0.175C11.175 0.45 10.65 0.65 10.075 0.775001C9.62501 0.3 8.975 0 8.275 0C6.925 0 5.825 1.1 5.825 2.45C5.825 2.65 5.85 2.825 5.9 3C3.875 2.9 2.05 1.925 0.825 0.425C0.625 0.800001 0.5 1.2 0.5 1.65C0.5 2.5 0.925001 3.25 1.6 3.7C1.2 3.675 0.825 3.575 0.475 3.4V3.425C0.475 4.625 1.325 5.625 2.45 5.85C2.25 5.9 2.025 5.925 1.8 5.925C1.65 5.925 1.475 5.9 1.325 5.875C1.65 6.85 2.55 7.57501 3.625 7.57501C2.775 8.22501 1.725 8.62501 0.575 8.62501C0.375 8.62501 0.175 8.62501 0 8.60001C1.1 9.30001 2.375 9.70001 3.775 9.70001C8.30001 9.70001 10.775 5.95 10.775 2.7C10.775 2.6 10.775 2.475 10.775 2.375C11.25 2.05 11.675 1.625 12 1.125Z" fill="#9F3247"/>
</svg>
